<svg width="26" height="26" viewBox="0 0 26 26" fill="none" xmlns="http://www.w3.org/2000/svg">
<g filter="url(#filter0_d_305_1672)">
<path fill-rule="evenodd" clip-rule="evenodd" d="M4 6.75C4 6.33579 4.33579 6 4.75 6H21.25C21.6642 6 22 6.33579 22 6.75C22 7.16421 21.6642 7.5 21.25 7.5H4.75C4.33579 7.5 4 7.16421 4 6.75ZM4 12C4 11.5858 4.33579 11.25 4.75 11.25H21.25C21.6642 11.25 22 11.5858 22 12C22 12.4142 21.6642 12.75 21.25 12.75H4.75C4.33579 12.75 4 12.4142 4 12ZM12.25 17.25C12.25 16.8358 12.5858 16.5 13 16.5H21.25C21.6642 16.5 22 16.8358 22 17.25C22 17.6642 21.6642 18 21.25 18H13C12.5858 18 12.25 17.6642 12.25 17.25Z" fill="white"/>
</g>
<defs>
<filter id="filter0_d_305_1672" x="-3" y="0" width="32" height="32" filterUnits="userSpaceOnUse" color-interpolation-filters="sRGB">
<feFlood flood-opacity="0" result="BackgroundImageFix"/>
<feColorMatrix in="SourceAlpha" type="matrix" values="0 0 0 0 0 0 0 0 0 0 0 0 0 0 0 0 0 0 127 0" result="hardAlpha"/>
<feOffset dy="4"/>
<feGaussianBlur stdDeviation="2"/>
<feComposite in2="hardAlpha" operator="out"/>
<feColorMatrix type="matrix" values="0 0 0 0 0 0 0 0 0 0 0 0 0 0 0 0 0 0 0.25 0"/>
<feBlend mode="normal" in2="BackgroundImageFix" result="effect1_dropShadow_305_1672"/>
<feBlend mode="normal" in="SourceGraphic" in2="effect1_dropShadow_305_1672" result="shape"/>
</filter>
</defs>
</svg>
